PathFileType	4	(X/Y/Z)	Patient4_TMGait_0pt3_02_right_08.trc.trc
DataRate	CameraRate	NumFrames	NumMarkers	Units	OrigDataRate	OrigDataStartFrame	OrigNumFrames
50.359712230216	50.359712230216	4	33	mm	50.359712230216	89	       141
Frame#	Time	Sacral			L.Shoulder			Chest			R.Shoulder			Neck			R.ASIS			L.ASIS			R.Thigh.Superior			R.Thigh.Lateral			R.Thigh.Inferior			R.Patella			L.Thigh.Superior			L.Thigh.Lateral			L.Thigh.Inferior			L.Patella			L.Shank.Superior			L.Shank.Lateral			L.Shank.Inferior			R.Shank.Superior			R.Shank.Lateral			R.Shank.Inferior			R.Heel			R.Midfoot.Superior			R.Midfoot.Lateral			R.Toe			L.Heel			L.Midfoot.Lateral			L.Midfoot.Superior			L.Toe			L.Elbow			L.Wrist			R.Elbow			R.Wrist			
		X1	Y1	Z1	X2	Y2	Z2	X3	Y3	Z3	X4	Y4	Z4	X5	Y5	Z5	X6	Y6	Z6	X7	Y7	Z7	X8	Y8	Z8	X9	Y9	Z9	X10	Y10	Z10	X11	Y11	Z11	X12	Y12	Z12	X13	Y13	Z13	X14	Y14	Z14	X15	Y15	Z15	X16	Y16	Z16	X17	Y17	Z17	X18	Y18	Z18	X19	Y19	Z19	X20	Y20	Z20	X21	Y21	Z21	X22	Y22	Z22	X23	Y23	Z23	X24	Y24	Z24	X25	Y25	Z25	X26	Y26	Z26	X27	Y27	Z27	X28	Y28	Z28	X29	Y29	Z29	X30	Y30	Z30	X31	Y31	Z31	X32	Y32	Z32	X33	Y33	Z33	

89	16.287428571429	713.671872182306	1010.080922211313	507.401656856172	849.007826897449	1414.328558885269	265.297887193901	987.637420385381	1357.566665191301	403.251945802652	947.175011132231	1450.456336884908	582.104089081434	866.611389739325	1490.740344907252	414.733219244796	955.360855521082	938.635039875527	585.906473345479	899.508606243351	955.550386723816	317.504834055840	957.407988822054	724.957465803504	566.773971142219	865.597729089554	626.747620578245	639.569805140669	926.875755283916	559.950701135446	558.150788489919	907.835336668326	460.203430853203	575.841401095103	969.290861645645	761.702328717850	345.815152379242	889.889788698464	635.584812603219	291.690393703052	990.006314754560	569.752121308494	344.625796589702	998.027482042220	500.992574305471	351.085952284351	979.236050486789	427.503670211956	344.782136509210	898.220456883872	303.345398654307	301.800417046870	971.397152574360	199.109373125097	366.397005303622	840.068917171129	391.444034592677	587.666385246110	732.063151543766	332.929134460829	656.293238650349	730.019386739630	224.454310095651	602.589049817427	537.512462326992	117.912314022453	584.928233612613	717.527810754978	110.745764664326	618.252037735616	614.384988131289	82.117737741054	657.432914318032	810.965577498849	33.770020427387	644.712470721106	862.081767379800	37.443117866245	416.712412231231	933.361620723585	35.068015622585	332.822528587034	1015.947485552531	99.324282957108	355.536166828076	1143.802802164272	51.583601333228	325.152346934987	760.187564472966	1064.379569875587	186.038673241730	832.366205278373	812.562252627743	193.202460064511	1154.604859473401	1190.484325084812	694.865693441316	1364.738118040994	1291.803605942233	595.022682897569	
90	16.307285714286	713.206506839072	1010.256286492283	501.926143444714	849.996687659773	1414.504734686385	260.306388471787	987.109705557141	1358.549698286869	400.026539775430	944.493269792536	1451.956577609141	578.140646444076	865.792774487071	1491.446117952488	409.708639834743	954.459843885471	939.645888172014	582.593004865354	900.800960309418	956.404876138728	313.687987830810	961.321432670549	726.984508801694	563.542401295717	871.947357621726	627.089348911869	636.382307836451	935.760048047237	561.071883776669	555.552783966634	917.963860771624	459.564700975147	574.678320820963	968.721507299493	761.005188589000	340.972150702353	887.732630081487	635.620553219905	288.276716470041	987.449188732368	569.125022915240	340.945378437322	994.817365696728	500.390056689753	347.829930137402	975.559976545208	426.909662385835	342.088039543251	893.479493829820	303.052671235192	300.152486123591	966.101223923336	198.774591133254	365.276721152451	847.769549447473	392.120572124289	586.128510301535	736.973162974196	337.838897069753	653.675098633678	732.731025157029	228.677202466294	601.433233200809	537.630226757268	129.272219491728	582.545689624520	716.728128112999	114.240690631950	617.709931159411	612.033333279387	90.283994247117	655.720125305970	805.794149481385	33.037137806896	644.880243648241	856.087215572699	37.381298089341	416.664304391577	927.308192228904	34.965962311830	332.678821890048	1009.876301684901	99.286428915033	355.260907529116	1137.791764203722	51.567940682914	324.970193598955	771.339261896513	1062.676174053120	177.596859994020	846.792026197940	811.916480091271	182.194614944520	1145.466785287380	1185.858189006724	693.370373803795	1362.828264649828	1275.636962090233	596.592139373142	
91	16.327142857143	712.617288978254	1010.223688513769	496.613902147400	850.791502898442	1414.579785766081	255.571600928259	986.269932045308	1359.490872154637	397.148925773911	941.368099702069	1453.360953495152	574.483554641696	864.690534073016	1492.052688269894	404.903737115397	953.435372599094	940.585141646765	579.523470672729	902.032079746636	957.264674025302	310.101510336419	965.649446696531	729.233546716075	560.421809322212	879.039240512342	627.507023043670	633.334190091202	945.482860949106	562.481808287922	553.029064091938	929.113801213273	459.222598958578	573.504913664077	968.169160483312	760.288881822637	336.494613984652	885.776488410964	635.618891493296	285.084863003084	985.012538282912	568.479571740002	337.645326972112	991.753241704177	499.758951323470	344.916406882417	972.034392583173	426.290543251163	339.696579389993	888.944957697934	302.770167002244	298.625997643441	960.892604413728	198.412040469675	364.327665487494	856.500585069488	392.987537588153	584.545541015434	742.941095418101	343.145579332327	650.869279090729	736.312950227649	233.409389873157	600.063457690266	538.863787917754	141.559606343150	579.583137671068	716.564774231477	118.434144866062	616.940009282730	610.426180352064	99.374069375909	653.549274018213	800.965959543944	32.526068416759	645.085123295196	850.088364289274	37.331726705025	416.629920822822	921.254353540396	34.877988238696	332.565058622566	1003.832580181416	99.201363253005	355.050398771704	1131.785563451070	51.477103053237	324.809258216333	783.458719813024	1061.048017804168	169.356792153043	861.525781103395	811.277276881998	171.646676820650	1134.707685460304	1180.536236451785	692.375900988492	1359.061852576660	1257.164461788073	598.858637140196	
92	16.347000000000	711.921940143726	1009.976921473882	491.454236519889	851.395998928556	1414.582579360633	251.133355762867	985.136061757717	1360.388063812662	394.628218767579	937.826604732375	1454.612059899039	571.167233201656	863.314726120626	1492.553222846381	400.374944247851	952.306642344630	941.446711754894	576.676477148088	903.221955604095	958.109545834499	306.733552254342	970.281984783101	731.701567731498	557.398757822634	886.717088474712	628.062020276260	630.418702759661	955.805458125119	564.228023600959	550.554673102523	941.043219003762	459.265685736676	572.266283564151	967.734108171454	759.579575697667	332.473248964953	884.188705224546	635.558676432987	282.147583938688	982.859843897834	567.819813741222	334.812513828024	989.023222324855	499.088420340917	342.438164640867	968.815404198921	425.628459752030	337.689340534580	884.766140772650	302.505129616467	297.248992700761	955.841822749750	198.008364616419	363.602443396771	866.079323044997	394.092922295840	582.884893620201	749.858544148920	348.786532305362	647.873019237945	740.716745031003	238.611347822658	598.448950622335	541.231008335073	154.515324727294	576.049802038981	717.086564759117	123.300154226977	615.914756494399	609.654655196054	109.233583564238	650.917026440290	796.628524946387	32.407346498447	645.288569674290	844.092336648614	37.295515804966	416.608340482086	915.210932543514	34.814298423345	332.487149630186	997.826044307724	99.069331784677	354.927519551642	1125.791783411139	51.321520752448	324.680853371499	796.322516880155	1059.626287057894	161.441824039650	876.592340864735	810.810763234790	161.704151651609	1122.359183655287	1174.590479581624	691.801431337884	1353.223434073302	1236.327285628880	601.785659450646	
